HIERARCHY
ROOT root
{
	OFFSET	0	13.1	24.9
	CHANNELS 6  Xposition Yposition Zposition Xrotation Yrotation Zrotation
	JOINT spine_1
	{
		OFFSET	0	9.99999	0
		CHANNELS 3  Xrotation Yrotation Zrotation
		JOINT spine_2
		{
			OFFSET	0	112	-10
			CHANNELS 3  Xrotation Yrotation Zrotation
			JOINT spine_3
			{
				OFFSET	0	206.5	19.3
				CHANNELS 3  Xrotation Yrotation Zrotation
				JOINT spine_4
				{
					OFFSET	0	110.4	14.6
					CHANNELS 3  Xrotation Yrotation Zrotation
					JOINT neck_1
					{
						OFFSET	0	71.8	-50.3
						CHANNELS 3  Xrotation Yrotation Zrotation
						JOINT neck_2
						{
							OFFSET	0	86.2	-25.8
							CHANNELS 3  Xrotation Yrotation Zrotation
							JOINT head_ee
							{
								OFFSET	0	179.8	-8.7
								CHANNELS 3  Xrotation Yrotation Zrotation
								End Site
								{
									OFFSET	1	0	0
								}
							}
						}
					}
					JOINT left_clavicle
					{
						OFFSET	-43.2	22.4	-70.8
						CHANNELS 3  Xrotation Yrotation Zrotation
						JOINT left_shoulder
						{
							OFFSET	-93.9	-5.79999	48.7
							CHANNELS 3  Xrotation Yrotation Zrotation
							JOINT left_elbow
							{
								OFFSET	-291.4	-30.8	15.2
								CHANNELS 3  Xrotation Yrotation Zrotation
								JOINT left_lowarm_twist
								{
									OFFSET	-110.7	-3.89999	13.6
									CHANNELS 3  Xrotation Yrotation Zrotation
									JOINT left_hand
									{
										OFFSET	-110.7	-3.89999	13.6
										CHANNELS 3  Xrotation Yrotation Zrotation
										JOINT left_ee
										{
											OFFSET	-80.8	-5.10001	12.1
											CHANNELS 3  Xrotation Yrotation Zrotation
											End Site
											{
												OFFSET	1	0	0
											}
										}
									}
								}
							}
						}
					}
					JOINT right_clavicle
					{
						OFFSET	43.2	22.4	-70.8
						CHANNELS 3  Xrotation Yrotation Zrotation
						JOINT right_shoulder
						{
							OFFSET	93.9	-5.79999	48.7
							CHANNELS 3  Xrotation Yrotation Zrotation
							JOINT right_elbow
							{
								OFFSET	291.4	-30.8	15.2
								CHANNELS 3  Xrotation Yrotation Zrotation
								JOINT right_lowarm_twist
								{
									OFFSET	110.7	-3.89999	13.6
									CHANNELS 3  Xrotation Yrotation Zrotation
									JOINT right_hand
									{
										OFFSET	110.7	-3.89999	13.6
										CHANNELS 3  Xrotation Yrotation Zrotation
										JOINT right_ee
										{
											OFFSET	80.8	-5.10001	12.1
											CHANNELS 3  Xrotation Yrotation Zrotation
											End Site
											{
												OFFSET	1	0	0
											}
										}
									}
								}
							}
						}
					}
				}
			}
		}
	}
	JOINT left_hip
	{
		OFFSET	-82.8	-127.5	0.300001
		CHANNELS 3  Xrotation Yrotation Zrotation
		JOINT left_knee
		{
			OFFSET	-28.2	-396.7	2.2
			CHANNELS 3  Xrotation Yrotation Zrotation
			JOINT left_ankle
			{
				OFFSET	-11.7	-411.3	35.4
				CHANNELS 3  Xrotation Yrotation Zrotation
				JOINT left_toes
				{
					OFFSET	0	-60	-88.6
					CHANNELS 3  Xrotation Yrotation Zrotation
					JOINT left_foot_ee
					{
						OFFSET	-22.5	-16.5	-42.2
						CHANNELS 3  Xrotation Yrotation Zrotation
						End Site
						{
							OFFSET	1	0	0
						}
					}
				}
			}
		}
	}
	JOINT right_hip
	{
		OFFSET	82.8	-127.5	0.300001
		CHANNELS 3  Xrotation Yrotation Zrotation
		JOINT right_knee
		{
			OFFSET	28.2	-396.7	2.2
			CHANNELS 3  Xrotation Yrotation Zrotation
			JOINT right_ankle
			{
				OFFSET	11.7	-411.3	35.4
				CHANNELS 3  Xrotation Yrotation Zrotation
				JOINT right_toes
				{
					OFFSET	0	-60	-88.6
					CHANNELS 3  Xrotation Yrotation Zrotation
					JOINT right_foot_ee
					{
						OFFSET	22.5	-16.5	-42.2
						CHANNELS 3  Xrotation Yrotation Zrotation
						End Site
						{
							OFFSET	1	0	0
						}
					}
				}
			}
		}
	}
}
MOTION
Frames: 10
Frame Time: 0.02
3177.02 653.055 -1669.29 -5.88936275888 61.9293626212 1.98497307688 0.288625 0.589202 3.56459 0.29562 0.361333 3.59481 0.321507 -0.382387 3.59263 0.303549 0.18942 3.60793 -2.19858 4.29396 0.132097 -2.16975 7.66032 0.714082 -0.0 0.0 -0.0 -3.91352 23.6641 -2.6092 -15.6343 3.28051 75.1538 0.48498 -13.5092 0.057441 -15.4992 -0.796073 1.80886 0.647903 28.6484 14.827 -0.0 0.0 -0.0 11.349 26.1688 -21.8817 17.7247 22.2677 -65.487 2.4951 51.0169 -1.1907 39.708 0.334161 4.9613 1.52065 6.64842 -7.46264 0.0 0.0 0.0 33.0879 34.1085 -5.84389 0.729363 -0.0307201 -0.107708 -0.934329 11.9393 0.137283 -33.3438 0.0 0.0 -0.0 0.0 -0.0 -12.8402 16.1548 5.78526 -14.5325 -0.32069 -2.20117 37.8443 2.78541 4.71193 7.65489 -0.0 -0.0 0.0 0.0 0.0 
3154.01113787 645.899 -1668.98096196 -5.67425392424 61.2959242672 2.21415862072 0.268369 0.737071 3.45476 0.27486 0.51588 3.4946 0.309631 -0.211006 3.52612 0.292452 0.348175 3.51524 -2.99578 3.18456 -0.04442 -2.98145 5.82124 0.415194 -0.0 0.0 -0.0 -3.44844 23.3101 -2.04516 -15.0558 2.6361 74.3878 0.503172 -13.9963 0.0617659 -15.0528 -0.766408 1.76002 0.748536 28.566 15.3687 -0.0 0.0 -0.0 10.7694 26.4622 -20.54 15.3075 22.8962 -64.1573 2.57206 51.8647 -1.25088 39.4784 0.322412 4.9344 1.76556 6.99187 -8.98658 0.0 0.0 0.0 33.0854 34.0559 -5.66988 -0.212546 0.00869371 0.0314587 -1.65345 12.3597 0.243445 -32.578 0.0 0.0 -0.0 0.0 -0.0 -14.6407 16.8026 4.45362 -14.9326 -0.321571 -2.26255 37.2305 3.37683 4.66291 8.40185 -0.0 -0.0 0.0 0.0 0.0 
3131.17668799 634.001 -1675.78932259 -5.63432380942 62.3868487093 2.97184694895 0.273082 0.829215 3.34205 0.279085 0.614997 3.38797 0.318698 -0.0913988 3.44206 0.302454 0.453035 3.41337 -3.97759 1.06278 -1.06247 -3.97082 2.75622 -0.925596 -0.0 0.0 -0.0 -3.16177 23.1737 -1.67667 -14.6893 0.541716 72.0062 0.516259 -14.3455 0.0649697 -14.7995 -0.749739 1.7322 0.876783 28.5526 16.0904 -0.0 0.0 -0.0 11.0551 27.8154 -21.0262 15.4259 23.7536 -63.2799 2.41898 50.1467 -1.1319 39.0658 0.301568 4.88592 1.78134 6.46655 -9.3179 0.0 0.0 0.0 33.1602 34.0318 -5.79569 -0.874568 0.0350221 0.129643 -1.78044 11.8337 0.262062 -31.5585 0.0 0.0 -0.0 0.0 -0.0 -16.633 17.2501 2.82974 -15.0488 -0.321746 -2.28038 38.2525 4.4717 4.77029 8.87036 -0.0 -0.0 0.0 0.0 0.0 
3106.25950368 645.957 -1681.92574238 -4.49187322754 65.31608025 3.14290006481 0.319907 0.403786 3.15866 0.325434 0.202078 3.17792 0.338959 -0.452071 3.15211 0.325099 0.0511577 3.18392 -4.20975 -1.05999 -1.39288 -4.20459 -0.877091 -1.60202 -0.0 0.0 -0.0 -1.54969 21.64 0.311803 -13.709 -1.01818 68.7054 0.411391 -11.5188 0.0414934 -14.5995 -0.736669 1.71019 1.20352 29.4897 18.2089 -0.0 0.0 -0.0 11.0971 27.3387 -21.1777 11.5599 23.5671 -63.8261 2.26896 48.3338 -1.01824 37.022 0.2035 4.64369 1.95994 6.31011 -10.6077 0.0 0.0 0.0 31.0549 32.2052 -6.66496 -4.09354 0.146765 0.610957 3.61001 9.6773 -0.523582 -28.9332 0.0 0.0 -0.0 0.0 -0.0 -15.2458 17.7791 1.82343 -17.5955 -0.31651 -2.67105 37.7606 3.1025 4.70806 9.02116 -0.0 -0.0 0.0 0.0 0.0 
3055.66753895 661.931 -1679.6484334 -3.49049008711 68.4358611279 3.32381166803 0.377545 -0.0583847 3.02591 0.382604 -0.250724 3.01608 0.370821 -0.861116 2.90149 0.359288 -0.392291 3.00096 -4.92462 -3.51235 -1.65938 -4.91388 -5.20536 -2.29518 -0.0 0.0 -0.0 0.838795 20.2925 3.58863 -12.3594 -3.00802 64.9046 0.312309 -8.79462 0.0240161 -14.4249 -0.725324 1.69094 1.62126 29.3913 20.584 -0.0 0.0 -0.0 10.933 25.8121 -20.9802 5.07296 23.0072 -64.4901 2.1057 46.2029 -0.898304 33.7135 0.0632723 4.24471 2.14963 6.01268 -12.0391 0.0 0.0 0.0 28.6402 30.1789 -7.59586 -9.11811 0.266677 1.37246 9.80247 7.40521 -1.39433 -25.0994 0.0 0.0 -0.0 0.0 -0.0 -15.1637 19.064 1.38223 -20.4986 -0.289377 -3.11561 37.1662 1.71875 4.63856 9.0768 -0.0 -0.0 0.0 0.0 0.0 
3031.72554207 668.208 -1676.31557621 -2.33263814634 68.5831107445 1.94593492977 0.510027 -0.199449 2.96729 0.514841 -0.387778 2.94861 0.495892 -0.975503 2.80957 0.485254 -0.519744 2.92825 -5.16231 -4.24722 -1.74416 -5.14915 -6.50872 -2.51806 -0.0 0.0 -0.0 1.62247 19.9655 4.71203 -11.9629 -3.93129 63.732 0.332696 -9.35885 0.0272323 -14.5034 -0.730418 1.6996 1.72317 29.3908 21.1771 -0.0 0.0 -0.0 10.9093 25.6302 -20.9462 2.89003 22.9261 -64.9287 2.03967 45.2909 -0.851008 32.6681 0.0237879 4.11706 2.18839 5.79338 -12.3998 0.0 0.0 0.0 27.9065 29.6689 -7.86519 -10.5653 0.288781 1.59343 11.8418 6.59299 -1.67255 -23.8863 0.0 0.0 -0.0 0.0 -0.0 -15.6639 20.781 2.23203 -21.392 -0.276499 -3.25209 36.9893 1.12748 4.61662 9.04632 -0.0 -0.0 0.0 0.0 0.0 
3031.78061711 668.208 -1677.37454596 -2.29014773943 68.1657764489 1.90022756374 0.510027 -0.199449 2.96729 0.514841 -0.387778 2.94861 0.495892 -0.975503 2.80957 0.485254 -0.519744 2.92825 -5.16231 -4.24722 -1.74416 -5.14915 -6.50872 -2.51806 -0.0 0.0 -0.0 1.62247 19.9655 4.71203 -11.9629 -3.93129 63.732 0.332696 -9.35885 0.0272323 -14.5034 -0.730418 1.6996 1.72317 29.3908 21.1771 -0.0 0.0 -0.0 10.9093 25.6302 -20.9462 2.89003 22.9261 -64.9287 2.03967 45.2909 -0.851008 32.6681 0.0237879 4.11706 2.18839 5.79338 -12.3998 0.0 0.0 0.0 27.9065 29.6689 -7.86519 -10.5653 0.288781 1.59343 11.8418 6.59299 -1.67255 -23.8863 0.0 0.0 -0.0 0.0 -0.0 -15.6639 20.781 2.23203 -21.392 -0.276499 -3.25209 36.9893 1.12748 4.61662 9.04632 -0.0 -0.0 0.0 0.0 0.0 
3031.83235383 668.208 -1678.25580316 -2.25602726761 67.818340223 1.86342555745 0.510027 -0.199449 2.96729 0.514841 -0.387778 2.94861 0.495892 -0.975503 2.80957 0.485254 -0.519744 2.92825 -5.16231 -4.24722 -1.74416 -5.14915 -6.50872 -2.51806 -0.0 0.0 -0.0 1.62247 19.9655 4.71203 -11.9629 -3.93129 63.732 0.332696 -9.35885 0.0272323 -14.5034 -0.730418 1.6996 1.72317 29.3908 21.1771 -0.0 0.0 -0.0 10.9093 25.6302 -20.9462 2.89003 22.9261 -64.9287 2.03967 45.2909 -0.851008 32.6681 0.0237879 4.11706 2.18839 5.79338 -12.3998 0.0 0.0 0.0 27.9065 29.6689 -7.86519 -10.5653 0.288781 1.59343 11.8418 6.59299 -1.67255 -23.8863 0.0 0.0 -0.0 0.0 -0.0 -15.6639 20.781 2.23203 -21.392 -0.276499 -3.25209 36.9893 1.12748 4.61662 9.04632 -0.0 -0.0 0.0 0.0 0.0 
2985.84717213 674.231 -1676.67350279 -1.46521622054 68.1572393198 2.03701189868 0.579602 -0.0605349 2.35661 0.582667 -0.210327 2.34799 0.574746 -0.676909 2.25816 0.567766 -0.311882 2.33668 -4.94458 -5.90733 -1.29309 -4.92257 -9.88684 -2.3348 -0.0 0.0 -0.0 2.59926 18.8677 6.10743 -9.5467 -5.81399 62.3371 0.565533 -15.6503 0.0777219 -15.246 -0.779198 1.78118 1.76607 29.6358 21.4844 -0.0 0.0 -0.0 8.9015 23.2263 -16.6893 -3.22469 22.4796 -65.8504 1.87056 42.8146 -0.733395 31.5379 -0.0162652 3.97829 2.2299 5.43745 -12.8375 0.0 0.0 0.0 22.7747 29.8372 -6.31747 -11.5355 0.300471 1.74183 18.2419 5.15957 -2.51214 -20.6663 0.0 0.0 -0.0 0.0 -0.0 -12.5284 23.0313 1.11129 -25.5121 -0.189639 -3.87825 36.8135 -0.0238805 4.59085 8.84607 -0.0 -0.0 0.0 0.0 0.0 
2960.01543226 675.641 -1677.01513559 0.00729952992611 67.7212259863 1.02801862418 0.675757 0.0750829 1.84416 0.677648 -0.0423973 1.8452 0.676769 -0.408176 1.8 0.672267 -0.118828 1.84185 -4.18519 -6.22488 -1.40562 -4.15328 -10.3228 -2.44731 -0.0 0.0 -0.0 3.26352 18.2407 7.09505 -8.00708 -7.43072 62.1621 0.66433 -18.2159 0.106504 -15.9937 -0.829379 1.86268 1.75961 29.7397 21.4707 -0.0 0.0 -0.0 8.18183 22.5291 -15.1595 -5.51151 22.2993 -66.4472 1.61736 38.6985 -0.567985 31.1502 -0.0293749 3.9305 2.26073 5.52821 -13.0124 0.0 0.0 0.0 20.6437 30.7465 -6.30242 -11.7678 0.302897 1.77739 21.8392 4.56733 -2.95864 -18.532 0.0 0.0 -0.0 0.0 -0.0 -10.9562 23.6201 0.736713 -29.8571 -0.0495133 -4.53019 37.6687 -1.0641 4.66255 9.33176 -0.0 -0.0 0.0 0.0 0.0 
